<?xml version="1.0" encoding="UTF-8"?>
<!-- Created with Inkscape (http://www.inkscape.org/) -->
<svg width="364.02" height="361.63" version="1.1" viewBox="0 0 364.02 361.63" xmlns="http://www.w3.org/2000/svg">
 <g transform="translate(-322.96 -98.222)">
  <g transform="translate(-6.9416)">
   <path d="m463 315.9c-36.105-7.051-41.477-44.577-10.951-76.494 8.4164-8.7998 14.629-16.563 21.539-26.912 17.808-26.673 38.553-33.703 59.644-20.211 15.529 9.9335 12.716 18.77-9.2313 29-26.002 12.12-30.93 14.798-36.351 19.753-11.212 10.247-16.337 26.952-12.406 40.434 1.9214 6.5893 2.4904 6.5015 7.9825-1.2322 4.697-6.6141 5.4375-8.8331 9.4237-28.239 0.88567-4.3116 3.3503 0.48717 3.3503 6.5232 0 11.735 11.486 2.2316 15.505-12.829 2.4597-9.2165 3.8797-10.19 4.2968-2.9455 0.44413 7.7142 2.8568 6.4562 14.384-7.5 6.714-8.1286 5.7318-1.8894-1.3271 8.4302-3.8214 5.5866-3.6553 6.1592 1.8906 6.515 5.8522 0.37551 5.8338 1.8976-0.041 3.3963-7.8886 2.0124-15.602 6.194-21.212 11.499-7.0553 6.6726-6.9545 7.0067 1.8884 6.2592 15.13-1.279 16.857 1.9815 2.5773 4.8663-19.923 4.0249-29.292 12.963-35.937 34.283-2.0428 6.5541-4.5365 7.4506-15.026 5.402zm14.674-9.7403c8.2886-20.672 13.553-25.448 35.326-32.042 2.8976-0.87765 2.1661-0.96447-4.25-0.50441-6.1456 0.44066-7.75 0.27371-7.75-0.80644 0-2.4479 13.345-14.536 19.5-17.664 3.3-1.6768 5.2125-3.0704 4.25-3.0969-2.3743-0.0653-2.201-2.519 0.42897-6.0763 3.4892-4.7194 1.5327-4.384-3.0694 0.52613-4.9226 5.252-5.7783 5.4587-7.2535 1.7521-1.0817-2.7179-1.1172-2.6832-3.0508 2.9766-3.8108 11.155-17.386 19.842-18.008 11.523-0.30718-4.1046-0.38121-3.984-2.163 3.5231-2.2707 9.5669-12.714 25.079-15.203 22.582-5.1574-5.1764-5.5398-23.807-0.69807-34.006 7.1502-15.061 16.165-21.948 42.999-32.853 16.071-6.5309 25.559-15.851 21.869-21.482-12.373-18.883-48.808-15.119-61.21 6.3227-5.6925 9.8424-15.251 22.105-25.862 33.178-29.106 30.373-25.672 64.186 7.4708 73.577 10.529 2.9833 12.927 1.9147 16.674-7.4302zm71.326 10.143c-1.375-0.23241-8.575-2.013-16-3.9569-15.86-4.1522-28.103-4.2739-39.935-0.39709-8.5765 2.8102-10.102 1.6867-7.6669-5.6456 2.6419-7.9541 4.006-9.3044 9.4082-9.313 39.358-0.0634 63.283-37.033 53.638-82.884-0.99422-4.7264 0.34913-3.5915 7.0238 5.934 3.089 4.4084 9.4834 11.94 14.21 16.737 18.74 19.02 21.708 24.571 21.776 40.721 0.10288 24.657-19.601 42.668-42.454 38.805zm15.76-3.1533c31.891-9.9256 34.791-42.684 6.4075-72.382-6.4496-6.7483-13.252-14.407-15.117-17.02-4.6341-6.4931-4.5425-6.7114-4.6197 11-0.16596 38.044-17.601 59.56-51.489 63.54-10.299 1.2096-10.299 1.2096-12.344 6.9029-2.5784 7.1778-2.1974 7.4872 6.1117 4.9634 8.8879-2.6996 21.45-3.7334 27.835-2.2906 2.725 0.61575 9.9045 2.4519 15.954 4.0803 12.879 3.4664 19.11 3.742 27.26 1.2054zm-138.81-81.523c-24.494-6.5564-37.855-45.862-21.804-64.143 17.052-19.421 49.272 4.8274 49.097 36.95-0.11351 20.886-5.8677 21.221-21.665 1.2588-8.3531-10.555-3.9226 0.39854 5.4834 13.557 6.4861 9.0738 6.4245 10.893-0.41565 12.266-1.7305 0.34723-3.8213 0.78822-4.6463 0.97996-0.825 0.19175-3.5472-0.19937-6.0494-0.86914zm10.582-2.0778c4.3509-1.8179 4.3359-2.0325-0.6051-8.6204-5.6686-7.558-10.468-16.45-12.341-22.862-2.9626-10.145-1.4536-9.647 6.6089 2.1815 14.056 20.621 18.386 22.901 20.86 10.985 6.5787-31.689-30.384-64.09-46.979-41.181-16.219 22.39 9.3007 69.172 32.457 59.497zm148.22 0.877c-3.7164-2.0162-3.4888-3.4343 1.6318-10.167 5.0863-6.6881 11.945-18.795 11.455-20.22-0.18509-0.5384-2.2192 1.5948-4.5202 4.7404-11.723 16.026-16.314 19.101-19.745 13.225-16.348-27.991 25.733-73.924 46.282-50.52 20.508 23.358-9.3583 76.909-35.104 62.942zm19.034-2.8186c13.098-6.6371 21.807-23.547 21.068-40.904-1.8269-42.892-52.404-24.653-52.129 18.798 0.1184 18.685 6.5095 16.971 22.081-5.9224 5.4852-8.0646 7.7712-9.5807 6.7103-4.4502-1.1694 5.655-5.0998 13.424-11.574 22.875-4.98 7.2709-5.942 9.2867-4.9835 10.442 2.6674 3.2141 11.615 2.8153 18.827-0.83918zm-132.96-47.189c-24.621-7.5766-35.004-53.834-16.603-73.967 25.535-27.94 63.703 21.146 45.912 59.046-4.7594 10.139-11.443 15.594-12.56 10.25-0.25866-1.2375-1.1924-6.0191-2.075-10.626-1.6689-8.7109-5.7987-20.889-7.6719-22.623-1.2222-1.1315-0.86113 1.6647 1.6784 12.999 5.1578 23.02 3.2206 28.582-8.6796 24.92zm8.9733-6.9885c0.30791-6.3771-3.4884-26.374-6.2716-33.035-2.6326-6.3007-2.127-9.3144 1.0604-6.3214 5.2727 4.9509 12.23 23.498 13.945 37.174 0.69108 5.5114 1.1861 5.7231 4.6785 2 24.052-25.641-1.3663-84.717-30.714-71.385-25.006 11.36-19.181 66.436 8.0993 76.584 7.3971 2.7517 8.8658 1.951 9.2023-5.0168zm64.311 7.6521c-2.2255-1.4072-0.83666-20.385 2.3747-32.449 1.4443-5.4255 2.4173-10.073 2.1622-10.328-1.8665-1.8665-9.3214 20.769-11.205 34.022-2.3174 16.305-17.435-7.0731-17.435-26.962 0-52.198 53.788-65.729 59.599-14.993 2.7716 24.197-21.833 59.348-35.495 50.71zm12.866-4.0687c20.74-10.581 27.838-52.249 11.855-69.589-28.029-30.408-65.151 33.655-37.998 65.574 3.7615 4.4217 3.9603 4.1794 6.2426-7.6052 3.0642-15.822 9.3618-31.195 13.416-32.751 1.8484-0.70931 2.0576 2.8322 0.41581 7.0412-3.8222 9.7989-8.0341 34.922-6.5173 38.875 0.81137 2.1144 6.8708 1.3707 12.585-1.5446z" fill="#a8ad95"/>
   <path d="m537.5 311.95c-6.05-1.6284-13.23-3.4645-15.954-4.0803-6.385-1.4428-18.948-0.40906-27.835 2.2906-8.3091 2.5238-8.69 2.2144-6.1117-4.9634 2.0451-5.6933 2.0451-5.6933 12.344-6.9029 33.888-3.9804 51.323-25.496 51.489-63.54 0.0773-17.712-0.0144-17.493 4.6197-11 1.8645 2.6125 8.667 10.271 15.117 17.02 37.778 39.528 16.429 84.661-33.668 71.177zm50.823-81.593c-5.1139-1.1118-4.8861-2.8497 1.6183-12.346 6.4737-9.4519 10.404-17.22 11.574-22.875 1.0609-5.1304-1.2251-3.6144-6.7103 4.4502-15.571 22.893-21.962 24.608-22.081 5.9224-0.27533-43.452 50.302-61.691 52.129-18.798 1.055 24.769-18.098 47.655-36.529 43.648zm-43.938-51.793c-1.5168-3.9526 2.6952-29.076 6.5173-38.875 1.6418-4.209 1.4326-7.7505-0.41581-7.0412-4.0542 1.5557-10.352 16.93-13.416 32.751-2.2823 11.785-2.4812 12.027-6.2426 7.6052-27.153-31.919 9.9691-95.981 37.998-65.574 18.912 20.517 5.9201 68.073-19.717 72.172-3.2922 0.52644-4.1997 0.32688-4.7238-1.0387z" fill="#b28152"/>
   <path d="m461 313.59c-33.143-9.3908-36.576-43.204-7.4708-73.577 10.611-11.073 20.17-23.336 25.862-33.178 12.401-21.442 48.837-25.206 61.21-6.3227 3.6897 5.6312-5.7979 14.951-21.869 21.482-26.835 10.905-35.849 17.792-42.999 32.853-4.8418 10.199-4.4593 28.829 0.69807 34.006 2.4886 2.4977 12.932-13.015 15.203-22.582 1.7818-7.5071 1.8558-7.6277 2.163-3.5231 0.62255 8.3182 14.198-0.3683 18.008-11.523 1.9335-5.6598 1.9691-5.6945 3.0508-2.9766 1.4752 3.7066 2.3309 3.4999 7.2535-1.7521 4.6022-4.9101 6.5586-5.2455 3.0694-0.52613-2.63 3.5573-2.8032 6.011-0.42897 6.0763 0.9625 0.0264-0.95 1.4201-4.25 3.0969-6.1553 3.1277-19.5 15.216-19.5 17.664 0 1.0802 1.6044 1.2471 7.75 0.80644 6.4161-0.46006 7.1476-0.37324 4.25 0.50441-21.773 6.5947-27.037 11.37-35.326 32.042-3.7468 9.3449-6.1449 10.414-16.674 7.4302zm14.317-4.9298c2.4013-7.6179 0.83703-11.529-4.6507-11.629-1.023-0.0186-1.6413-0.58578-1.3988-1.2833 0.4418-1.2709 1.7775-1.3048 7.3548-0.18648 3.4754 0.69683 7.3773-2.3469 7.3773-5.7547 0-2.4052 7.0394-8.7722 12.661-11.451 2.5809-1.2301 4.0232-2.4345 3.3866-2.828-0.68444-0.42301-0.85964-2.0141-0.45769-4.1567 0.62944-3.3552 0.56316-3.4492-1.9823-2.8104-1.5086 0.37864-3.228 0.16758-4.0253-0.4941-1.1404-0.94643-1.5184-0.37953-2.0926 3.1383-0.38543 2.3614-1.4977 5.1934-2.4717 6.2934s-2.9031 3.8-4.2869 6c-4.109 6.5327-6.6595 8.8044-8.3291 7.4187-3.3778-2.8033-5.5398-10.24-5.5808-19.197-0.0429-9.3627 0.5545-11.685 5.5156-21.442 2.7664-5.4407 2.9991-6.4854 1.8557-8.3284-1.0097-1.6275-1.0388-2.431-0.12756-3.529 1.354-1.6314 3.935-1.908 3.935-0.42164 0 0.55-0.45 1-1 1s-1 0.675-1 1.5c0 1.9359 1.8912 1.947 2.6324 0.0155 0.3133-0.81646 4.4059-3.837 9.0947-6.7124 6.0398-3.7039 8.8083-6.0406 9.4968-8.0155 0.66655-1.912 1.6634-2.7876 3.1739-2.7876 1.2112 0 2.6391-0.3375 3.1732-0.75 0.53407-0.4125-0.16343 0.26026-1.55 1.495-2.7469 2.4462-1.6726 3.0858 1.5065 0.89685 1.0849-0.74696 3.5475-1.6469 5.4725-1.9999 9.7819-1.7938 20.026-9.0256 17.811-12.573-2.2545-3.61 3.7858-7.0721 6.9019-3.956 0.61207 0.61207 1.6021 0.81052 2.2 0.44098 5.3078-3.2804-8.5578-14.362-20.681-16.528-16.464-2.9424-37.245 8.0641-39.747 21.051-0.23201 1.2047-1.3003 2.8057-2.374 3.5578-1.0737 0.75205-4.2394 4.512-7.0349 8.3555-2.7955 3.8435-9.4703 11.608-14.833 17.254-19.583 20.618-23.625 31.686-18.211 49.865 5.3278 17.89 34.099 31.833 38.285 18.553zm-50.615-79.104c-29.047-10.361-35.592-61.985-8.5024-67.067 18.682-3.5047 39.622 25.781 34.855 48.745-2.4738 11.916-6.8044 9.6357-20.86-10.985-8.0625-11.829-9.5716-12.327-6.6089-2.1815 1.8725 6.4122 6.6723 15.304 12.341 22.862 6.3275 8.4367 0.59463 12.843-11.224 8.6271zm10.095-4.1011c0.43321-4.425-6.0721-12.915-8.7838-11.464-3.5535 1.9018-4.262 1.2628-3.5955-3.2424 1.0036-6.7845 0.87081-8.8399-0.96211-14.894-2.7735-9.1603 0.11859-11.628 4.6954-4.0071 1.2058 2.0079 4.0701 5.9008 6.3651 8.6508s5.3137 6.8 6.7082 9c2.9177 4.603 7.4911 9.117 8.3583 8.2498 1.8903-1.8903 3.281-17.098 1.6555-18.102-1.3322-0.82336-4.1917 1.9601-4.5717 4.4502-0.43888 2.8758-2.1192 2.7827-2.2828-0.12642-0.0635-1.1298-0.9635-2.6771-2-3.4385-1.8148-1.3331-1.7828-1.4909 0.86545-4.2634 1.5125-1.5834 2.75-3.6419 2.75-4.5743 0-0.9324 0.675-1.6953 1.5-1.6953 1.9479 0 1.9038-2.3018-0.12059-6.2997-2.5581-5.0518-4.4748-6.8661-5.9554-5.6373-2.3049 1.9129-10.718-2.6451-9.4064-5.096 0.57899-1.0819 1.7494-1.967 2.6009-1.967 2.7597 0 0.89211-2.4436-3.6304-4.75-25.5-13.004-39.421 24.589-18.671 50.42 9.707 12.084 23.668 17.095 24.481 8.7868zm35.793-47.008c-27.28-10.148-33.105-65.224-8.0993-76.584 29.348-13.332 54.766 45.744 30.714 71.385-3.4924 3.7231-3.9874 3.5114-4.6785-2-1.7149-13.677-8.6723-32.223-13.945-37.174-3.1875-2.9929-3.693 0.0207-1.0604 6.3214 2.7832 6.6611 6.5795 26.658 6.2716 33.035-0.33644 6.9678-1.8052 7.7685-9.2023 5.0168zm4.7539-5.6241c3.775-1.3006 3.8345-1.399 3.2878-5.4384-1.0757-7.9478-4.7526-17.386-6.7731-17.386-1.0226 0-1.8654-0.5625-1.873-1.25-8e-3 -0.6875-0.285-2.2625-0.61664-3.5-0.9113-3.4005 0.93898-2.6954 2.624 1 1.2964 2.8432 1.5218 2.981 1.8004 1.1014 0.17514-1.1818-0.60688-3.8751-1.7378-5.9852s-2.0563-4.6042-2.0563-5.5423c0-0.93819-0.45-1.9839-1-2.3238s-0.98569-2.279-0.9682-4.309c0.0283-3.2832 0.17857-3.4976 1.3602-1.941 0.73064 0.9625 1.7871 1.75 2.3477 1.75 3.0483 0 14.26 18.862 14.26 23.99 0 1.1406 0.62265 3.564 1.3837 5.3854 0.76103 1.8214 1.7091 6.1152 2.1068 9.5419 0.7231 6.2303 0.7231 6.2303 3.1163 3.982 2.879-2.7047 3.0371-4.4847 0.51813-5.8328-2.1496-1.1505-3.4086-4.7735-1.968-5.6638 0.53303-0.32942 1.824 0.17471 2.8689 1.1203s2.5476 1.4706 3.3394 1.1668c3.1015-1.1902 5.235-22.69 2.2515-22.69-0.76085 0-1.6187-0.9-1.9064-2-0.33992-1.2999-0.0307-2 0.88337-2 2.6941 0 0.92251-9.9459-2.4679-13.855-2.3378-2.6956-3.8072-2.724-4.6432-0.0899-0.81482 2.5672-2.8753 2.017-3.3019-0.88177-0.23063-1.5673 0.39436-2.4414 2.25-3.1469 3.1796-1.2089 3.1806-1.5361 0.0185-5.682-3.0589-4.0104-6.0162-4.6832-4.3314-0.98544 1.4581 3.2001-1.8085 10.068-4.1116 8.6448-1.1497-0.71053-1.2185-1.1913-0.30189-2.108 1.0155-1.0155 0.78931-6.4729-0.32283-7.7875-0.18224-0.21542-1.2276 0.68458-2.3231 2-1.4004 1.6816-2.0057 1.9463-2.0387 0.89166-0.0258-0.825-0.3356-2.5788-0.68843-3.8974-0.57995-2.1673-0.39769-2.3362 1.8992-1.7597 3.0806 0.77318 5.5631-1.4396 3.5186-3.1363-11.118-9.2271-28.429 1.0581-32.899 19.547-3.2456 13.425 1.9747 38.342 8.384 40.018 1.036 0.27092 1.7654 1.4036 1.7654 2.7414 0 1.3702 1.4525 3.5551 3.6406 5.4762 3.8817 3.4082 5.0188 3.483 12.704 0.83525z" fill="#848c69"/>
   <path d="m463.28 313.03c-12.345-2.9339-23.091-12.318-26.249-22.922-5.414-18.179-1.3719-29.247 18.211-49.865 5.3626-5.6461 12.037-13.41 14.833-17.254 2.7955-3.8434 5.9612-7.6034 7.0349-8.3555 1.0737-0.75206 2.142-2.3531 2.374-3.5578 2.5011-12.987 23.282-23.994 39.747-21.051 12.123 2.1666 25.989 13.248 20.681 16.528-0.59793 0.36954-1.5879 0.17109-2.2-0.44098-3.1161-3.1161-9.1564 0.34601-6.9019 3.956 2.2154 3.5475-8.029 10.779-17.811 12.573-1.925 0.35301-4.3876 1.253-5.4725 1.9999-3.1791 2.1889-4.2534 1.5494-1.5065-0.89685 1.3866-1.2348 2.0841-1.9075 1.55-1.495-0.53406 0.4125-1.962 0.75-3.1732 0.75-1.5105 0-2.5074 0.87554-3.1739 2.7876-0.68846 1.9749-3.457 4.3117-9.4968 8.0155-4.6888 2.8754-8.7814 5.896-9.0947 6.7124-0.74119 1.9315-2.6324 1.9204-2.6324-0.01554 0-0.825 0.45-1.5 1-1.5s1-0.45 1-1c0-1.4864-2.581-1.2098-3.935 0.42164-0.9112 1.0979-0.88216 1.9015 0.12756 3.529 1.1434 1.843 0.91065 2.8876-1.8557 8.3284-4.9611 9.7573-5.5586 12.08-5.5156 21.442 0.0411 8.9571 2.203 16.394 5.5808 19.197 1.6696 1.3857 4.2201-0.88604 8.3291-7.4187 1.3838-2.2 3.3129-4.9 4.2869-6s2.0862-3.932 2.4717-6.2934c0.5742-3.5179 0.95219-4.0848 2.0926-3.1383 0.79727 0.66168 2.5167 0.87274 4.0253 0.4941 2.5455-0.63887 2.6118-0.54489 1.9823 2.8104-0.40195 2.1426-0.22675 3.7337 0.45769 4.1567 0.63664 0.39346-0.80567 1.5979-3.3866 2.828-5.6215 2.6793-12.661 9.0463-12.661 11.451 0 3.4078-3.9019 6.4515-7.3773 5.7547-5.5773-1.1183-6.913-1.0844-7.3548 0.18648-0.24247 0.69749 0.37581 1.2647 1.3988 1.2833 5.4877 0.0996 7.052 4.011 4.6507 11.629-1.8367 5.8266-3.4445 6.4101-12.036 4.3683zm-42.289-86.302c-6.3569-3.3417-16.336-15.981-18.547-23.492-7.7733-26.399 6.9833-46.962 26.543-36.986 4.5225 2.3064 6.3901 4.75 3.6304 4.75-0.85149 0-2.0219 0.88516-2.6009 1.967-1.3117 2.451 7.1015 7.009 9.4064 5.096 1.4806-1.2288 3.3973 0.58553 5.9554 5.6373 2.0244 3.9979 2.0685 6.2997 0.12059 6.2997-0.825 0-1.5 0.76288-1.5 1.6953 0 0.93241-1.2375 2.9908-2.75 4.5743-2.6482 2.7725-2.6803 2.9302-0.86545 4.2634 1.0365 0.76139 1.9365 2.3087 2 3.4385 0.1635 2.9091 1.8439 3.0022 2.2828 0.12642 0.38001-2.4901 3.2394-5.2735 4.5717-4.4502 1.6255 1.0046 0.23481 16.212-1.6555 18.102-0.8672 0.86721-5.4406-3.6468-8.3583-8.2498-1.3945-2.2-4.4132-6.25-6.7082-9s-5.1593-6.6428-6.3651-8.6508c-4.5768-7.6214-7.4689-5.1532-4.6954 4.0071 1.8329 6.0537 1.9657 8.1092 0.96211 14.894-0.66644 4.5053 0.0421 5.1442 3.5955 3.2424 2.7117-1.4512 9.217 7.0392 8.7838 11.464-0.41215 4.2099-7.0529 4.8216-13.806 1.2718zm41.648-54.739c-2.1881-1.9212-3.6406-4.106-3.6406-5.4762 0-1.3378-0.72945-2.4705-1.7654-2.7414-6.4093-1.6761-11.63-26.593-8.384-40.018 4.4698-18.489 21.781-28.774 32.899-19.547 2.0445 1.6967-0.43802 3.9095-3.5186 3.1363-2.2969-0.57649-2.4792-0.40762-1.8992 1.7597 0.35283 1.3185 0.66263 3.0724 0.68843 3.8974 0.033 1.0547 0.63823 0.78997 2.0387-0.89166 1.0955-1.3154 2.1408-2.2154 2.3231-2 1.1121 1.3145 1.3384 6.7719 0.32283 7.7875-0.91663 0.91663-0.84777 1.3974 0.30189 2.108 2.3031 1.4234 5.5697-5.4447 4.1116-8.6448-1.6848-3.6978 1.2725-3.025 4.3314 0.98544 3.1622 4.1459 3.1611 4.4731-0.0185 5.682-1.8556 0.70552-2.4806 1.5796-2.25 3.1469 0.42657 2.8988 2.487 3.449 3.3019 0.88177 0.83603-2.6341 2.3054-2.6056 4.6432 0.0899 3.3904 3.9092 5.162 13.855 2.4679 13.855-0.91405 0-1.2233 0.70014-0.88337 2 0.28766 1.1 1.1455 2 1.9064 2 2.9834 0 0.85004 21.5-2.2515 22.69-0.79179 0.30384-2.2945-0.22123-3.3394-1.1668s-2.3358-1.4497-2.8689-1.1203c-1.4405 0.89031-0.18163 4.5134 1.968 5.6638 2.519 1.3481 2.3608 3.1282-0.51813 5.8328-2.3932 2.2483-2.3932 2.2483-3.1163-3.982-0.39771-3.4267-1.3458-7.7205-2.1068-9.5419-0.76097-1.8214-1.3836-4.2448-1.3836-5.3854 0-5.1283-11.212-23.99-14.26-23.99-0.56061 0-1.6171-0.7875-2.3477-1.75-1.1817-1.5567-1.332-1.3422-1.3602 1.941-0.0175 2.03 0.4182 3.9691 0.9682 4.309s1 1.3856 1 2.3238c0 0.93818 0.92532 3.4322 2.0563 5.5423s1.913 4.8034 1.7378 5.9852c-0.27858 1.8797-0.50394 1.7418-1.8004-1.1014-1.685-3.6954-3.5353-4.4005-2.624-1 0.33164 1.2375 0.60913 2.8125 0.61664 3.5 8e-3 0.6875 0.85034 1.25 1.873 1.25 2.0205 0 5.6974 9.4383 6.7731 17.386 0.54674 4.0395 0.48724 4.1379-3.2878 5.4384-7.6853 2.6477-8.8223 2.5729-12.704-0.83525z" fill="#7d8862"/>
  </g>
  <g transform="matrix(.8221 0 0 .83159 90.889 52.057)" stroke-linecap="round" stroke-linejoin="round" stroke-width=".96755">
   <g fill="#7d8862" opacity=".99" stroke="#7d8862" stroke-opacity=".99216" style="paint-order:markers stroke fill" aria-label="E">
    <path d="m333.88 366.73h-35.389v19.043h32.585q3.5971 0 5.3427 1.6398 1.7985 1.5869 1.7985 4.2318t-1.7456 4.3376q-1.7456 1.6398-5.3956 1.6398h-32.585v22.058h36.605q3.7029 0 5.5543 1.7456 1.9043 1.6927 1.9043 4.5492 0 2.7507-1.9043 4.4963-1.8514 1.6927-5.5543 1.6927h-42.689q-5.1311 0-7.4057-2.2746-2.2217-2.2746-2.2217-7.3528v-58.294q0-3.3855 1.0051-5.5014 1.0051-2.1688 3.121-3.121 2.1688-1.0051 5.5014-1.0051h41.472q3.7558 0 5.5543 1.6927 1.8514 1.6398 1.8514 4.3376 0 2.7507-1.8514 4.4434-1.7985 1.6398-5.5543 1.6398z" stroke-width=".96755"/>
   </g>
   <g fill="#7d8862" opacity=".99" stroke="#7d8862" stroke-opacity=".99216" style="paint-order:markers stroke fill" aria-label="co">
    <path d="m400.71 416.57q0 2.5412-1.5446 5.4312-1.4948 2.89-4.634 5.5309-3.0893 2.591-7.8229 4.1855-4.7336 1.5945-10.663 1.5945-12.606 0-19.682-7.3247-7.0755-7.3745-7.0755-19.732 0-8.371 3.2388-14.799 3.2388-6.4278 9.3676-9.9157 6.1288-3.5378 14.649-3.5378 5.2817 0 9.6666 1.5446 4.4347 1.5447 7.4742 3.9862 3.0893 2.4416 4.6838 5.2319 1.6443 2.7405 1.6443 5.1322 0 2.4416-1.8436 4.1357-1.7938 1.6941-4.3848 1.6941-1.6941 0-2.8402-0.84707-1.0962-0.8969-2.4914-2.8402-2.4914-3.7869-5.2319-5.6804-2.6907-1.8934-6.8762-1.8934-6.0291 0-9.7164 4.7336-3.6872 4.6838-3.6872 12.856 0 3.8367 0.94672 7.0755 0.94673 3.189 2.7405 5.481 1.7938 2.2422 4.335 3.4381 2.5412 1.146 5.5807 1.146 4.0859 0 6.9759-1.8934 2.9398-1.8934 5.1821-5.78 1.2457-2.2921 2.6907-3.5876 1.445-1.2955 3.5378-1.2955 2.4914 0 4.1357 1.8934t1.6443 4.036z"/>
    <path d="m463.49 405.76q0 6.079-1.8934 11.211-1.8934 5.1322-5.481 8.8195-3.5876 3.6872-8.5704 5.6804-4.9828 1.9433-11.211 1.9433-6.1786 0-11.112-1.9931-4.9329-1.9931-8.5704-5.6804-3.5876-3.7371-5.481-8.7697-1.8436-5.0824-1.8436-11.211 0-6.1786 1.8934-11.311 1.8934-5.1322 5.4312-8.7697 3.5378-3.6374 8.5704-5.5807 5.0326-1.9931 11.112-1.9931 6.1786 0 11.211 1.9931 5.0326 1.9931 8.6202 5.6804 3.5876 3.6872 5.4312 8.7697 1.8934 5.0824 1.8934 11.211zm-13.653 0q0-8.3212-3.6872-12.955-3.6374-4.634-9.816-4.634-3.9862 0-7.0257 2.0928-3.0395 2.0429-4.6838 6.079t-1.6443 9.4174q0 5.3316 1.5945 9.3178 1.6443 3.9862 4.634 6.1288 3.0395 2.0928 7.1254 2.0928 6.1786 0 9.816-4.634 3.6872-4.6838 3.6872-12.905z"/>
   </g>
   <g fill="#b28152" opacity=".99" stroke="#b38151" stroke-opacity=".99608" style="paint-order:markers stroke fill" aria-label="P">
    <path d="m502.53 401.96h-14.388v21.953q0 4.7079-2.2217 7.1412-2.2217 2.4333-5.6072 2.4333-3.5442 0-5.713-2.3804-2.1688-2.4333-2.1688-7.0883v-59.775q0-5.184 2.3804-7.4057 2.3804-2.2217 7.5644-2.2217h20.154q8.9398 0 13.753 1.3754 4.7608 1.3224 8.1992 4.3905 3.4913 3.0681 5.2898 7.5115 1.7985 4.4434 1.7985 9.9977 0 11.849-7.2999 17.985-7.2999 6.0833-21.741 6.0833zm-3.8086-35.547h-10.58v23.698h10.58q5.5543 0 9.2571-1.1638 3.7558-1.1638 5.713-3.8086 1.9572-2.6449 1.9572-6.9296 0-5.1311-3.0152-8.3579-3.3855-3.4384-13.912-3.4384z" stroke-width=".96755"/>
   </g>
   <g fill="#b28152" opacity=".99" stroke="#b38151" stroke-opacity=".99608" style="paint-order:markers stroke fill" aria-label="aws">
    <path d="m574.12 425.74q-4.9329 3.8367-9.5669 5.78-4.5842 1.8934-10.314 1.8934-5.2319 0-9.2181-2.0429-3.9364-2.0928-6.079-5.6305t-2.1426-7.6735q0-5.5807 3.5378-9.5171 3.5378-3.9364 9.7164-5.2817 1.2955-0.29897 6.4278-1.3454t8.7697-1.8934q3.6872-0.8969 7.9724-2.1426-0.24913-5.3814-2.1924-7.8728-1.8934-2.5412-7.9226-2.5412-5.1821 0-7.8229 1.445-2.591 1.445-4.4845 4.335-1.8436 2.89-2.6409 3.8367-0.74741 0.8969-3.2886 0.8969-2.2921 0-3.9862-1.445-1.6443-1.4948-1.6443-3.7869 0-3.5876 2.5412-6.9759t7.9226-5.5807q5.3814-2.1924 13.404-2.1924 8.969 0 14.101 2.1426 5.1322 2.0928 7.225 6.6769 2.1426 4.5841 2.1426 12.158 0 4.7834-0.0498 8.1219 0 3.3385-0.0498 7.4243 0 3.8367 1.2457 8.0222 1.2955 4.1357 1.2955 5.3316 0 2.0928-1.9931 3.8367-1.9433 1.6941-4.4347 1.6941-2.0928 0-4.1357-1.9433-2.0429-1.9931-4.335-5.7302zm-0.8969-19.682q-2.9896 1.0962-8.7198 2.3419-5.6804 1.1959-7.8728 1.7938-2.1924 0.5481-4.1855 2.2422-1.9931 1.6443-1.9931 4.634 0 3.0893 2.3419 5.2817 2.3419 2.1426 6.1288 2.1426 4.036 0 7.4243-1.744 3.4381-1.7938 5.0326-4.5841 1.8436-3.0893 1.8436-10.165z"/>
    <path d="m606.31 386.58 8.8693 30.395 8.0721-28.252q1.2955-4.4347 1.8934-6.0292 0.64776-1.6443 2.3419-3.0893 1.744-1.4948 4.7336-1.4948 3.0395 0 4.7336 1.4948 1.744 1.445 2.4416 3.189 0.69758 1.6941 1.9433 5.9295l8.0721 28.252 8.969-30.395q0.89689-3.2886 1.445-4.7336 0.5481-1.4948 1.8436-2.591 1.2955-1.146 3.7371-1.146 2.4416 0 4.2354 1.6941 1.7938 1.6941 1.7938 3.9862 0 2.0928-1.5447 6.3281l-11.112 32.587q-1.445 4.1357-2.2422 5.9793-0.79724 1.8436-2.5412 3.2886-1.6941 1.445-4.6838 1.445-3.0893 0-4.8831-1.5447-1.744-1.5447-2.591-3.7869-0.84707-2.2422-1.8436-5.8298l-7.7731-26.508-7.524 26.508q-1.4948 5.5309-3.2388 8.371-1.744 2.7904-6.1288 2.7904-2.2422 0-3.8367-0.8969-1.5446-0.84707-2.591-2.4416-1.0464-1.6443-1.8436-3.8367-0.79724-2.2422-1.2457-3.5378l-11.012-32.587q-1.6443-4.5841-1.6443-6.3281 0-2.1924 1.744-3.9364 1.744-1.744 4.2852-1.744 3.3883 0 4.5841 1.9433 1.1959 1.8934 2.5412 6.5274z"/>
    <path d="m724.6 415.62q0 5.6305-2.7405 9.6666-2.7405 3.9862-8.1219 6.079-5.3316 2.0429-13.005 2.0429-7.3247 0-12.557-2.2422-5.2319-2.2422-7.7233-5.5807-2.4914-3.3883-2.4914-6.7766 0-2.2422 1.5945-3.8367 1.5945-1.5945 4.036-1.5945 2.1426 0 3.2886 1.0464 1.146 1.0464 2.1924 2.9398 2.0928 3.6374 4.9828 5.4312 2.9398 1.7938 7.9724 1.7938 4.0859 0 6.6769-1.7938 2.6409-1.8436 2.6409-4.1855 0-3.5876-2.7405-5.2319-2.6907-1.6443-8.9192-3.1391-7.0257-1.744-11.46-3.6374-4.3848-1.9433-7.0257-5.0824-2.6409-3.1391-2.6409-7.7233 0-4.0859 2.4416-7.7233 2.4416-3.6374 7.1752-5.78 4.7834-2.1924 11.51-2.1924 5.2817 0 9.4672 1.0962 4.2354 1.0962 7.0257 2.9398 2.8402 1.8436 4.2852 4.0859 1.4948 2.2422 1.4948 4.3848 0 2.3419-1.5945 3.8367-1.5447 1.4948-4.4347 1.4948-2.0928 0-3.5876-1.1959-1.445-1.1959-3.3384-3.5876-1.5447-1.9931-3.6374-3.189-2.0928-1.1959-5.6804-1.1959-3.6872 0-6.1288 1.5945-2.4416 1.5447-2.4416 3.8866 0 2.1426 1.7938 3.5378 1.7938 1.3454 4.8333 2.2422 3.0395 0.8969 8.371 2.1924 6.3281 1.5447 10.314 3.6872 4.036 2.1426 6.079 5.0824 2.0928 2.89 2.0928 6.6271z"/>
   </g>
  </g>
  <g transform="matrix(1.2236 0 0 .81727 1.0351e-5 0)" fill="#7d8862" opacity=".99" stroke="#7d8862" stroke-linecap="round" stroke-linejoin="round" stroke-opacity=".99216" style="paint-order:stroke markers fill" aria-label="STORE">
   <path d="m371.46 553.08q0 2.1652-0.80899 3.8546-0.7852 1.6894-2.2128 2.8791-1.4038 1.1659-3.3312 1.7608-1.9035 0.59485-4.1164 0.59485-1.5466 0-2.8791-0.26174-1.3087-0.26173-2.3556-0.64243-1.0231-0.38071-1.737-0.7852-0.69002-0.4045-0.97555-0.69003-0.26173-0.28553-0.4045-0.71382-0.11897-0.45208-0.11897-1.1897 0-0.52347 0.0476-0.85659 0.0476-0.3569 0.14276-0.57105 0.0952-0.21415 0.23794-0.28553 0.14277-0.0952 0.33312-0.0952 0.33311 0 0.92796 0.40449 0.61864 0.4045 1.5704 0.88038t2.2842 0.90417q1.3563 0.4045 3.117 0.4045 1.3325 0 2.427-0.35691 1.1183-0.35691 1.9035-0.99935 0.80899-0.66623 1.2373-1.618 0.42829-0.95175 0.42829-2.1652 0-1.3087-0.59485-2.2366-0.59485-0.92796-1.5704-1.618-0.97555-0.71382-2.2366-1.2849-1.2373-0.59485-2.546-1.1897-1.3087-0.61865-2.546-1.3563-1.2373-0.73761-2.2128-1.737-0.97555-0.99934-1.5942-2.3318-0.59485-1.3563-0.59485-3.236 0-1.9273 0.69002-3.4263 0.71382-1.5228 1.9511-2.546 1.2611-1.0231 2.9742-1.5466 1.737-0.54726 3.7356-0.54726 1.0231 0 2.0463 0.19035 1.0469 0.16656 1.9511 0.47588 0.92796 0.28553 1.6418 0.66623 0.71382 0.35691 0.92797 0.59485 0.23794 0.21415 0.30932 0.35691 0.0714 0.11897 0.11897 0.33312 0.0476 0.19035 0.0714 0.47587 0.0238 0.28553 0.0238 0.73762 0 0.42829-0.0476 0.7614-0.0238 0.33312-0.0952 0.57106-0.0714 0.21414-0.21415 0.33311-0.11896 0.0952-0.28552 0.0952-0.26174 0-0.83279-0.33312-0.54726-0.33311-1.3563-0.73761-0.80899-0.42829-1.9273-0.7614-1.0945-0.35691-2.4746-0.35691-1.2849 0-2.2366 0.35691-0.95175 0.33311-1.5704 0.90417-0.61864 0.57105-0.92796 1.3562t-0.30932 1.6656q0 1.2849 0.59485 2.2128 0.59485 0.92797 1.5704 1.6418 0.99934 0.71381 2.2604 1.3087t2.5698 1.2135q1.3087 0.59485 2.5697 1.3325 1.2611 0.71382 2.2366 1.7132 0.99934 0.97555 1.5942 2.3318 0.61864 1.3325 0.61864 3.1646z"/>
   <path d="m395.69 532.69q0 0.45208-0.0476 0.7852-0.0476 0.33311-0.16656 0.54726-0.0952 0.19035-0.26173 0.28553-0.14277 0.0952-0.33312 0.0952h-8.661v26.697q0 0.19035-0.0952 0.33311-0.0952 0.14277-0.33311 0.23794-0.23794 0.0714-0.64244 0.11897-0.3807 0.0714-0.97555 0.0714-0.57106 0-0.97555-0.0714-0.4045-0.0476-0.64244-0.11897-0.23794-0.0952-0.33312-0.23794-0.0952-0.14276-0.0952-0.33311v-26.697h-8.661q-0.19035 0-0.35691-0.0952-0.14276-0.0952-0.23794-0.28553-0.0952-0.21415-0.16655-0.54726-0.0476-0.33312-0.0476-0.7852 0-0.45209 0.0476-0.7852 0.0714-0.35691 0.16655-0.57106 0.0952-0.21414 0.23794-0.30932 0.16656-0.0952 0.35691-0.0952h21.415q0.19035 0 0.33312 0.0952 0.16656 0.0952 0.26173 0.30932 0.11897 0.21415 0.16656 0.57106 0.0476 0.33311 0.0476 0.7852z"/>
   <path d="m423.97 545.97q0 3.7356-0.88037 6.7337-0.88038 2.998-2.6411 5.1157-1.737 2.0939-4.3781 3.236-2.6411 1.1183-6.1626 1.1183-3.4739 0-6.0199-1.0231-2.5222-1.0469-4.1877-3.0218-1.6418-1.9749-2.4508-4.9016-0.80899-2.9266-0.80899-6.7337 0-3.6405 0.88038-6.6147 0.88037-2.9742 2.6411-5.0443 1.7608-2.0939 4.4019-3.2122 2.6411-1.1421 6.1626-1.1421 3.4025 0 5.9247 1.0231t4.1877 2.998q1.6894 1.9511 2.4984 4.854 0.83278 2.8791 0.83278 6.6147zm-4.3067 0.28553q0-2.6173-0.47588-4.854-0.45208-2.2604-1.5466-3.9022-1.0707-1.6656-2.8791-2.5935-1.8083-0.92797-4.4733-0.92797-2.6649 0-4.4733 0.99935-1.8083 0.99934-2.9504 2.6649-1.1183 1.6656-1.618 3.9022-0.47588 2.2128-0.47588 4.6636 0 2.7125 0.45208 4.9967 0.45209 2.2842 1.5228 3.9498 1.0707 1.6418 2.8553 2.5698 1.8083 0.90417 4.5208 0.90417 2.6887 0 4.5208-0.99935 1.8321-0.99934 2.9504-2.6887 1.1183-1.7132 1.5942-3.9498t0.47588-4.735z"/>
   <path d="m450.4 561.1q0 0.19035-0.0714 0.33311-0.0714 0.14277-0.30932 0.23794-0.23794 0.0952-0.66623 0.14277-0.42829 0.0476-1.1421 0.0476-0.61864 0-1.0231-0.0476-0.3807-0.0476-0.61864-0.14277-0.23794-0.11897-0.3807-0.30932-0.11897-0.19035-0.21415-0.47588l-2.8315-7.2572q-0.49967-1.2373-1.0469-2.2604-0.52347-1.0469-1.2611-1.7846-0.73761-0.76141-1.737-1.1659-0.99935-0.42829-2.4032-0.42829h-2.7363v13.11q0 0.19035-0.11897 0.33311-0.0952 0.14277-0.33312 0.23794-0.21414 0.0714-0.61864 0.11897-0.3807 0.0714-0.97555 0.0714t-0.99935-0.0714q-0.3807-0.0476-0.61864-0.11897-0.23794-0.0952-0.33312-0.23794-0.0952-0.14276-0.0952-0.33311v-28.505q0-0.92796 0.47588-1.2849 0.49967-0.3807 1.0469-0.3807h6.5433q1.1659 0 1.9273 0.0714 0.7852 0.0476 1.4038 0.11897 1.7845 0.30932 3.1408 0.97555 1.38 0.66623 2.308 1.6894 0.92797 1.0231 1.38 2.3556 0.47588 1.3087 0.47588 2.9029 0 1.5466-0.42829 2.7839-0.4045 1.2135-1.1897 2.1652-0.7852 0.92797-1.8797 1.618-1.0945 0.69003-2.4508 1.1659 0.76141 0.33312 1.38 0.85659 0.61864 0.49967 1.1421 1.2135 0.54726 0.71382 1.0231 1.6418t0.95176 2.0939l2.7601 6.7813q0.33311 0.85658 0.42829 1.2135 0.0952 0.33312 0.0952 0.52347zm-6.1626-21.629q0-1.8083-0.80899-3.0456-0.809-1.2611-2.7125-1.8083-0.59485-0.16656-1.3563-0.23794-0.73761-0.0714-1.9511-0.0714h-3.4501v10.374h3.9974q1.618 0 2.7839-0.38071 1.1897-0.40449 1.9749-1.0945 0.7852-0.71382 1.1421-1.6656 0.3807-0.95176 0.3807-2.0701z"/>
   <path d="m472.87 560.03q0 0.42829-0.0476 0.76141-0.0476 0.30932-0.16655 0.52346-0.11897 0.21415-0.28553 0.30933-0.14277 0.0952-0.33312 0.0952h-14.776q-0.54726 0-1.0469-0.35691-0.47588-0.3807-0.47588-1.3087v-27.458q0-0.92796 0.47588-1.2849 0.49967-0.3807 1.0469-0.3807h14.609q0.19035 0 0.33311 0.0952 0.16656 0.0952 0.26173 0.30932 0.0952 0.21415 0.14277 0.54726 0.0714 0.30933 0.0714 0.7852 0 0.4283-0.0714 0.76141-0.0476 0.30932-0.14277 0.52347-0.0952 0.19035-0.26173 0.28553-0.14276 0.0952-0.33311 0.0952h-12.04v9.6603h10.327q0.19035 0 0.33312 0.11897 0.16655 0.0952 0.26173 0.28553 0.11897 0.19035 0.16656 0.52347 0.0476 0.33311 0.0476 0.7852 0 0.42829-0.0476 0.73761t-0.16656 0.49967q-0.0952 0.19035-0.26173 0.28553-0.14277 0.0714-0.33312 0.0714h-10.327v11.017h12.206q0.19035 0 0.33312 0.0952 0.16656 0.0952 0.28553 0.30932 0.11897 0.19036 0.16655 0.52347 0.0476 0.30932 0.0476 0.7852z"/>
  </g>
 </g>
</svg>
