<?xml version="1.0" encoding="UTF-8" standalone="no"?>
<svg
   version="1.1"
   viewBox="0 0 754.85 218.66"
   id="svg52"
   sodipodi:docname="ecopaws-store-31_h.svg"
   inkscape:version="1.2.2 (732a01da63, 2022-12-09)"
   xmlns:inkscape="http://www.inkscape.org/namespaces/inkscape"
   xmlns:sodipodi="http://sodipodi.sourceforge.net/DTD/sodipodi-0.dtd"
   xmlns="http://www.w3.org/2000/svg"
   xmlns:svg="http://www.w3.org/2000/svg">
  <defs
     id="defs56" />
  <sodipodi:namedview
     id="namedview54"
     pagecolor="#ffffff"
     bordercolor="#000000"
     borderopacity="0.25"
     inkscape:showpageshadow="2"
     inkscape:pageopacity="0.0"
     inkscape:pagecheckerboard="0"
     inkscape:deskcolor="#d1d1d1"
     showgrid="false"
     inkscape:zoom="3.0204677"
     inkscape:cx="77.968057"
     inkscape:cy="108.75799"
     inkscape:window-width="1280"
     inkscape:window-height="650"
     inkscape:window-x="-6"
     inkscape:window-y="-6"
     inkscape:window-maximized="1"
     inkscape:current-layer="g10" />
  <g
     transform="translate(-390.21 -98.222)"
     id="g50"
     style="stroke:#000000;stroke-opacity:1;stroke-width:2;stroke-dasharray:none">
    <g
       transform="translate(-6.9416)"
       id="g10"
       style="stroke:#000000;stroke-opacity:1;stroke-width:2;stroke-dasharray:none">
      <path
         style="stroke:none;stroke-width:2;stroke-dasharray:none;stroke-opacity:1;fill:#7d8862;fill-opacity:1"
         d="m 513.63988,185.62044 c -15.71079,-0.57335 -28.46787,10.8245 -37.15825,22.74531 -7.86389,11.83823 -16.51631,23.16857 -26.52081,33.29278 -11.51553,12.80665 -20.60074,30.29681 -16.94371,47.95369 2.72887,14.01475 15.63619,23.66406 29.14157,26.11669 4.98323,0.87934 12.67936,3.20982 15.06407,-3.03376 3.65257,-11.76105 8.93346,-24.38865 20.25989,-30.66814 7.35967,-4.60219 16.20165,-5.20854 24.22856,-7.97025 5.72654,-3.3096 -5.40113,-3.25892 -7.648,-2.89762 -3.71649,0.63296 -13.84895,1.5235 -6.87316,-3.85656 6.97592,-7.45627 16.39165,-12.11627 26.20501,-14.55123 5.55175,-4.26116 -12.43427,-0.41879 -5.77982,-7.20499 1.97559,-3.84669 8.34993,-10.53191 6.18911,-13.86232 -5.75323,4.65213 -9.09934,12.08175 -15.69035,15.72415 -4.14562,0.23824 -1.07025,-13.95872 -4.95848,-7.0827 -2.4937,8.19054 -4.79464,17.46143 -12.14757,22.71663 -8.37198,3.42103 -2.4325,-11.81454 -7.9601,-12.24799 -2.78688,10.49586 -3.40024,22.1796 -10.79565,30.80415 -1.43413,3.41376 -6.10784,6.82521 -6.66287,1.02872 -5.83311,-18.53718 4.47519,-39.74108 21.58022,-48.26505 12.30859,-6.98861 25.86618,-11.59699 37.84389,-19.16174 4.74339,-3.00285 10.38452,-8.8075 6.95069,-14.74124 -5.06411,-7.42586 -13.78096,-11.74092 -22.25223,-14.03856 -1.99376,-0.45165 -4.02881,-0.726 -6.07201,-0.79997 z"
         id="path999" />
      <path
         id="path2562"
         style="color:#000000;fill:#000000;stroke:none;-inkscape-stroke:none"
         d="M 419.05199 159.54817 C 409.2429 159.25193 400.81945 167.13347 398.08715 176.16145 C 393.40859 190.43572 397.63636 206.37119 406.13988 218.33723 C 411.95619 226.28832 420.79498 232.9137 430.9309 233.38606 C 434.24362 233.30776 438.63245 233.215 440.33129 229.82161 C 441.30479 226.59354 439.51158 223.32213 438.38988 220.35481 C 434.80554 212.48549 429.28384 205.76083 424.80004 198.42317 C 424.68668 198.44933 424.60184 198.48628 424.50121 198.51692 C 424.73647 197.60925 423.50818 196.34288 423.00316 195.09895 C 422.21669 194.21043 422.24857 193.28021 422.55199 192.43294 C 424.905 195.87038 427.78073 198.94623 430.13402 202.39387 C 431.51931 203.30499 432.62396 207.22576 434.2141 206.85872 C 433.87845 207.78492 435.15916 208.9034 436.00512 209.98372 C 438.62597 213.48235 441.48816 216.95962 445.26879 219.24348 C 447.50233 217.42298 444.68732 216.42133 443.39379 215.0013 C 440.48542 212.1927 437.99254 208.99595 435.40551 205.89973 C 435.31045 205.93795 435.22463 205.97922 435.14183 206.01887 C 434.02258 203.43944 431.32211 200.45316 429.6848 197.6888 C 427.80257 195.2117 426.11297 192.29329 423.65941 190.40169 C 423.75623 190.2381 423.83755 190.08865 423.88793 189.95833 C 421.81168 188.20638 420.63367 184.74458 417.61449 184.54231 C 414.22197 184.87292 417.19347 188.37593 417.63597 190.11458 C 419.20405 193.38207 421.30117 196.35271 423.10472 199.48567 C 423.16726 199.46966 423.2247 199.45194 423.28246 199.43489 C 423.09184 199.99189 423.38408 200.71107 424.09691 201.55989 C 428.11389 209.47232 435.2752 215.83451 437.1184 224.78255 C 437.71591 227.91016 434.6041 230.01657 431.78051 229.75911 C 423.58996 230.469 416.31554 225.04651 411.49926 218.90755 C 402.90664 208.16722 398.13198 193.76479 400.72972 180.05598 C 402.36579 172.50071 407.69425 164.78866 415.82738 163.63802 C 425.31089 162.45749 433.9383 168.39388 440.04808 175.08723 C 449.53843 185.47596 454.58975 200.70893 450.54808 214.50325 C 450.35598 217.25352 447.64396 217.57817 446.16137 218.27864 C 444.34671 220.33986 449.74019 221.42483 451.01683 220.02278 C 453.83992 217.88963 453.48925 213.89154 454.03832 210.72981 C 454.68704 202.28137 453.93441 193.614 450.66332 185.72981 C 446.23887 174.68334 437.64933 164.75094 426.22582 160.75911 C 423.91211 160.00856 421.48493 159.56838 419.05199 159.54817 z " />
      <path
         style="stroke:#000000;stroke-width:2;stroke-dasharray:none;stroke-opacity:1;fill:#7d8862;fill-opacity:1"
         d="m 470.9348,98.218094 c -5.70753,0.0117 -11.47428,2.502546 -16.71093,8.232426 -18.40098,20.13296 -8.0194,66.39021 16.60156,73.96679 h 0.002 c 11.90018,3.662 13.83747,-1.89996 8.67969,-24.91992 -2.53953,-11.33428 -6.64603,-22.79361 -5.42383,-21.66211 1.8732,1.734 9.74712,22.57428 11.41602,31.28516 0.8826,4.60688 1.81751,9.38945 2.07617,10.62695 1.117,5.344 7.80116,-0.11102 12.56054,-10.25 13.8992,-29.60931 -6.35769,-66.046648 -28.06054,-67.248046 -0.3798,-0.02102 -0.76012,-0.03203 -1.14063,-0.03125 z"
         id="path2" />
      <path
         d="m537.5 311.95c-6.05-1.6284-13.23-3.4645-15.954-4.0803-6.385-1.4428-18.948-0.40906-27.835 2.2906-8.3091 2.5238-8.69 2.2144-6.1117-4.9634 2.0451-5.6933 2.0451-5.6933 12.344-6.9029 33.888-3.9804 51.323-25.496 51.489-63.54 0.0773-17.712-0.0144-17.493 4.6197-11 1.8645 2.6125 8.667 10.271 15.117 17.02 37.778 39.528 16.429 84.661-33.668 71.177zm50.823-81.593c-5.1139-1.1118-4.8861-2.8497 1.6183-12.346 6.4737-9.4519 10.404-17.22 11.574-22.875 1.0609-5.1304-1.2251-3.6144-6.7103 4.4502-15.571 22.893-21.962 24.608-22.081 5.9224-0.27533-43.452 50.302-61.691 52.129-18.798 1.055 24.769-18.098 47.655-36.529 43.648zm-43.938-51.793c-1.5168-3.9526 2.6952-29.076 6.5173-38.875 1.6418-4.209 1.4326-7.7505-0.41581-7.0412-4.0542 1.5557-10.352 16.93-13.416 32.751-2.2823 11.785-2.4812 12.027-6.2426 7.6052-27.153-31.919 9.9691-95.981 37.998-65.574 18.912 20.517 5.9201 68.073-19.717 72.172-3.2922 0.52644-4.1997 0.32688-4.7238-1.0387z"
         fill="#b28152"
         id="path4"
         style="stroke:#000000;stroke-opacity:1;stroke-width:2;stroke-dasharray:none" />
    </g>
    <g
       transform="matrix(1.2524 0 0 1.2524 284.67 -289.99)"
       stroke-linecap="round"
       stroke-linejoin="round"
       id="g48"
       style="stroke:#000000;stroke-opacity:1;stroke-width:1.59693389;stroke-dasharray:none">
      <g
         transform="matrix(.8221 0 0 .83159 90.889 52.057)"
         stroke-width=".96755"
         id="g34"
         style="stroke:#000000;stroke-opacity:1;stroke-width:1.93139002;stroke-dasharray:none">
        <g
           fill="#7d8862"
           opacity=".99"
           stroke="#7d8862"
           stroke-opacity=".99216"
           style="paint-order:markers stroke fill;stroke:#000000;stroke-opacity:1;stroke-width:1.93139002;stroke-dasharray:none"
           aria-label="E"
           id="g14">
          <path
             d="m333.88 366.73h-35.389v19.043h32.585q3.5971 0 5.3427 1.6398 1.7985 1.5869 1.7985 4.2318t-1.7456 4.3376q-1.7456 1.6398-5.3956 1.6398h-32.585v22.058h36.605q3.7029 0 5.5543 1.7456 1.9043 1.6927 1.9043 4.5492 0 2.7507-1.9043 4.4963-1.8514 1.6927-5.5543 1.6927h-42.689q-5.1311 0-7.4057-2.2746-2.2217-2.2746-2.2217-7.3528v-58.294q0-3.3855 1.0051-5.5014 1.0051-2.1688 3.121-3.121 2.1688-1.0051 5.5014-1.0051h41.472q3.7558 0 5.5543 1.6927 1.8514 1.6398 1.8514 4.3376 0 2.7507-1.8514 4.4434-1.7985 1.6398-5.5543 1.6398z"
             stroke-width=".96755"
             id="path12"
             style="stroke:#000000;stroke-opacity:1;stroke-width:1.93139002;stroke-dasharray:none" />
        </g>
        <g
           fill="#7d8862"
           opacity=".99"
           stroke="#7d8862"
           stroke-opacity=".99216"
           style="paint-order:markers stroke fill;stroke:#000000;stroke-opacity:1;stroke-width:1.93139002;stroke-dasharray:none"
           aria-label="co"
           id="g20">
          <path
             d="m400.71 416.57q0 2.5412-1.5446 5.4312-1.4948 2.89-4.634 5.5309-3.0893 2.591-7.8229 4.1855-4.7336 1.5945-10.663 1.5945-12.606 0-19.682-7.3247-7.0755-7.3745-7.0755-19.732 0-8.371 3.2388-14.799 3.2388-6.4278 9.3676-9.9157 6.1288-3.5378 14.649-3.5378 5.2817 0 9.6666 1.5446 4.4347 1.5447 7.4742 3.9862 3.0893 2.4416 4.6838 5.2319 1.6443 2.7405 1.6443 5.1322 0 2.4416-1.8436 4.1357-1.7938 1.6941-4.3848 1.6941-1.6941 0-2.8402-0.84707-1.0962-0.8969-2.4914-2.8402-2.4914-3.7869-5.2319-5.6804-2.6907-1.8934-6.8762-1.8934-6.0291 0-9.7164 4.7336-3.6872 4.6838-3.6872 12.856 0 3.8367 0.94672 7.0755 0.94673 3.189 2.7405 5.481 1.7938 2.2422 4.335 3.4381 2.5412 1.146 5.5807 1.146 4.0859 0 6.9759-1.8934 2.9398-1.8934 5.1821-5.78 1.2457-2.2921 2.6907-3.5876 1.445-1.2955 3.5378-1.2955 2.4914 0 4.1357 1.8934t1.6443 4.036z"
             id="path16"
             style="stroke:#000000;stroke-opacity:1;stroke-width:1.93139002;stroke-dasharray:none" />
          <path
             d="m463.49 405.76q0 6.079-1.8934 11.211-1.8934 5.1322-5.481 8.8195-3.5876 3.6872-8.5704 5.6804-4.9828 1.9433-11.211 1.9433-6.1786 0-11.112-1.9931-4.9329-1.9931-8.5704-5.6804-3.5876-3.7371-5.481-8.7697-1.8436-5.0824-1.8436-11.211 0-6.1786 1.8934-11.311 1.8934-5.1322 5.4312-8.7697 3.5378-3.6374 8.5704-5.5807 5.0326-1.9931 11.112-1.9931 6.1786 0 11.211 1.9931 5.0326 1.9931 8.6202 5.6804 3.5876 3.6872 5.4312 8.7697 1.8934 5.0824 1.8934 11.211zm-13.653 0q0-8.3212-3.6872-12.955-3.6374-4.634-9.816-4.634-3.9862 0-7.0257 2.0928-3.0395 2.0429-4.6838 6.079t-1.6443 9.4174q0 5.3316 1.5945 9.3178 1.6443 3.9862 4.634 6.1288 3.0395 2.0928 7.1254 2.0928 6.1786 0 9.816-4.634 3.6872-4.6838 3.6872-12.905z"
             id="path18"
             style="stroke:#000000;stroke-opacity:1;stroke-width:1.93139002;stroke-dasharray:none" />
        </g>
        <g
           fill="#b28152"
           opacity=".99"
           stroke="#b38151"
           stroke-opacity=".99608"
           style="paint-order:markers stroke fill;stroke:#000000;stroke-opacity:1;stroke-width:1.93139002;stroke-dasharray:none"
           aria-label="P"
           id="g24">
          <path
             d="m502.53 401.96h-14.388v21.953q0 4.7079-2.2217 7.1412-2.2217 2.4333-5.6072 2.4333-3.5442 0-5.713-2.3804-2.1688-2.4333-2.1688-7.0883v-59.775q0-5.184 2.3804-7.4057 2.3804-2.2217 7.5644-2.2217h20.154q8.9398 0 13.753 1.3754 4.7608 1.3224 8.1992 4.3905 3.4913 3.0681 5.2898 7.5115 1.7985 4.4434 1.7985 9.9977 0 11.849-7.2999 17.985-7.2999 6.0833-21.741 6.0833zm-3.8086-35.547h-10.58v23.698h10.58q5.5543 0 9.2571-1.1638 3.7558-1.1638 5.713-3.8086 1.9572-2.6449 1.9572-6.9296 0-5.1311-3.0152-8.3579-3.3855-3.4384-13.912-3.4384z"
             stroke-width=".96755"
             id="path22"
             style="stroke:#000000;stroke-opacity:1;stroke-width:1.93139002;stroke-dasharray:none" />
        </g>
        <g
           fill="#b28152"
           opacity=".99"
           stroke="#b38151"
           stroke-opacity=".99608"
           style="paint-order:markers stroke fill;stroke:#000000;stroke-opacity:1;stroke-width:1.93139002;stroke-dasharray:none"
           aria-label="aws"
           id="g32">
          <path
             d="m574.12 425.74q-4.9329 3.8367-9.5669 5.78-4.5842 1.8934-10.314 1.8934-5.2319 0-9.2181-2.0429-3.9364-2.0928-6.079-5.6305t-2.1426-7.6735q0-5.5807 3.5378-9.5171 3.5378-3.9364 9.7164-5.2817 1.2955-0.29897 6.4278-1.3454t8.7697-1.8934q3.6872-0.8969 7.9724-2.1426-0.24913-5.3814-2.1924-7.8728-1.8934-2.5412-7.9226-2.5412-5.1821 0-7.8229 1.445-2.591 1.445-4.4845 4.335-1.8436 2.89-2.6409 3.8367-0.74741 0.8969-3.2886 0.8969-2.2921 0-3.9862-1.445-1.6443-1.4948-1.6443-3.7869 0-3.5876 2.5412-6.9759t7.9226-5.5807q5.3814-2.1924 13.404-2.1924 8.969 0 14.101 2.1426 5.1322 2.0928 7.225 6.6769 2.1426 4.5841 2.1426 12.158 0 4.7834-0.0498 8.1219 0 3.3385-0.0498 7.4243 0 3.8367 1.2457 8.0222 1.2955 4.1357 1.2955 5.3316 0 2.0928-1.9931 3.8367-1.9433 1.6941-4.4347 1.6941-2.0928 0-4.1357-1.9433-2.0429-1.9931-4.335-5.7302zm-0.8969-19.682q-2.9896 1.0962-8.7198 2.3419-5.6804 1.1959-7.8728 1.7938-2.1924 0.5481-4.1855 2.2422-1.9931 1.6443-1.9931 4.634 0 3.0893 2.3419 5.2817 2.3419 2.1426 6.1288 2.1426 4.036 0 7.4243-1.744 3.4381-1.7938 5.0326-4.5841 1.8436-3.0893 1.8436-10.165z"
             id="path26"
             style="stroke:#000000;stroke-opacity:1;stroke-width:1.93139002;stroke-dasharray:none" />
          <path
             d="m606.31 386.58 8.8693 30.395 8.0721-28.252q1.2955-4.4347 1.8934-6.0292 0.64776-1.6443 2.3419-3.0893 1.744-1.4948 4.7336-1.4948 3.0395 0 4.7336 1.4948 1.744 1.445 2.4416 3.189 0.69758 1.6941 1.9433 5.9295l8.0721 28.252 8.969-30.395q0.89689-3.2886 1.445-4.7336 0.5481-1.4948 1.8436-2.591 1.2955-1.146 3.7371-1.146 2.4416 0 4.2354 1.6941 1.7938 1.6941 1.7938 3.9862 0 2.0928-1.5447 6.3281l-11.112 32.587q-1.445 4.1357-2.2422 5.9793-0.79724 1.8436-2.5412 3.2886-1.6941 1.445-4.6838 1.445-3.0893 0-4.8831-1.5447-1.744-1.5447-2.591-3.7869-0.84707-2.2422-1.8436-5.8298l-7.7731-26.508-7.524 26.508q-1.4948 5.5309-3.2388 8.371-1.744 2.7904-6.1288 2.7904-2.2422 0-3.8367-0.8969-1.5446-0.84707-2.591-2.4416-1.0464-1.6443-1.8436-3.8367-0.79724-2.2422-1.2457-3.5378l-11.012-32.587q-1.6443-4.5841-1.6443-6.3281 0-2.1924 1.744-3.9364 1.744-1.744 4.2852-1.744 3.3883 0 4.5841 1.9433 1.1959 1.8934 2.5412 6.5274z"
             id="path28"
             style="stroke:#000000;stroke-opacity:1;stroke-width:1.93139002;stroke-dasharray:none" />
          <path
             d="m724.6 415.62q0 5.6305-2.7405 9.6666-2.7405 3.9862-8.1219 6.079-5.3316 2.0429-13.005 2.0429-7.3247 0-12.557-2.2422-5.2319-2.2422-7.7233-5.5807-2.4914-3.3883-2.4914-6.7766 0-2.2422 1.5945-3.8367 1.5945-1.5945 4.036-1.5945 2.1426 0 3.2886 1.0464 1.146 1.0464 2.1924 2.9398 2.0928 3.6374 4.9828 5.4312 2.9398 1.7938 7.9724 1.7938 4.0859 0 6.6769-1.7938 2.6409-1.8436 2.6409-4.1855 0-3.5876-2.7405-5.2319-2.6907-1.6443-8.9192-3.1391-7.0257-1.744-11.46-3.6374-4.3848-1.9433-7.0257-5.0824-2.6409-3.1391-2.6409-7.7233 0-4.0859 2.4416-7.7233 2.4416-3.6374 7.1752-5.78 4.7834-2.1924 11.51-2.1924 5.2817 0 9.4672 1.0962 4.2354 1.0962 7.0257 2.9398 2.8402 1.8436 4.2852 4.0859 1.4948 2.2422 1.4948 4.3848 0 2.3419-1.5945 3.8367-1.5447 1.4948-4.4347 1.4948-2.0928 0-3.5876-1.1959-1.445-1.1959-3.3384-3.5876-1.5447-1.9931-3.6374-3.189-2.0928-1.1959-5.6804-1.1959-3.6872 0-6.1288 1.5945-2.4416 1.5447-2.4416 3.8866 0 2.1426 1.7938 3.5378 1.7938 1.3454 4.8333 2.2422 3.0395 0.8969 8.371 2.1924 6.3281 1.5447 10.314 3.6872 4.036 2.1426 6.079 5.0824 2.0928 2.89 2.0928 6.6271z"
             id="path30"
             style="stroke:#000000;stroke-opacity:1;stroke-width:1.93139002;stroke-dasharray:none" />
        </g>
      </g>
      <g
         transform="matrix(1.2236 0 0 .81727 1.0351e-5 0)"
         fill="#7d8862"
         opacity=".99"
         stroke="#7d8862"
         stroke-opacity=".99216"
         style="paint-order:stroke markers fill;stroke:#000000;stroke-opacity:1;stroke-width:1.59692465;stroke-dasharray:none"
         aria-label="STORE"
         id="g46">
        <path
           d="m371.46 553.08q0 2.1652-0.80899 3.8546-0.7852 1.6894-2.2128 2.8791-1.4038 1.1659-3.3312 1.7608-1.9035 0.59485-4.1164 0.59485-1.5466 0-2.8791-0.26174-1.3087-0.26173-2.3556-0.64243-1.0231-0.38071-1.737-0.7852-0.69002-0.4045-0.97555-0.69003-0.26173-0.28553-0.4045-0.71382-0.11897-0.45208-0.11897-1.1897 0-0.52347 0.0476-0.85659 0.0476-0.3569 0.14276-0.57105 0.0952-0.21415 0.23794-0.28553 0.14277-0.0952 0.33312-0.0952 0.33311 0 0.92796 0.40449 0.61864 0.4045 1.5704 0.88038t2.2842 0.90417q1.3563 0.4045 3.117 0.4045 1.3325 0 2.427-0.35691 1.1183-0.35691 1.9035-0.99935 0.80899-0.66623 1.2373-1.618 0.42829-0.95175 0.42829-2.1652 0-1.3087-0.59485-2.2366-0.59485-0.92796-1.5704-1.618-0.97555-0.71382-2.2366-1.2849-1.2373-0.59485-2.546-1.1897-1.3087-0.61865-2.546-1.3563-1.2373-0.73761-2.2128-1.737-0.97555-0.99934-1.5942-2.3318-0.59485-1.3563-0.59485-3.236 0-1.9273 0.69002-3.4263 0.71382-1.5228 1.9511-2.546 1.2611-1.0231 2.9742-1.5466 1.737-0.54726 3.7356-0.54726 1.0231 0 2.0463 0.19035 1.0469 0.16656 1.9511 0.47588 0.92796 0.28553 1.6418 0.66623 0.71382 0.35691 0.92797 0.59485 0.23794 0.21415 0.30932 0.35691 0.0714 0.11897 0.11897 0.33312 0.0476 0.19035 0.0714 0.47587 0.0238 0.28553 0.0238 0.73762 0 0.42829-0.0476 0.7614-0.0238 0.33312-0.0952 0.57106-0.0714 0.21414-0.21415 0.33311-0.11896 0.0952-0.28552 0.0952-0.26174 0-0.83279-0.33312-0.54726-0.33311-1.3563-0.73761-0.80899-0.42829-1.9273-0.7614-1.0945-0.35691-2.4746-0.35691-1.2849 0-2.2366 0.35691-0.95175 0.33311-1.5704 0.90417-0.61864 0.57105-0.92796 1.3562t-0.30932 1.6656q0 1.2849 0.59485 2.2128 0.59485 0.92797 1.5704 1.6418 0.99934 0.71381 2.2604 1.3087t2.5698 1.2135q1.3087 0.59485 2.5697 1.3325 1.2611 0.71382 2.2366 1.7132 0.99934 0.97555 1.5942 2.3318 0.61864 1.3325 0.61864 3.1646z"
           id="path36"
           style="stroke:#000000;stroke-opacity:1;stroke-width:1.59692465;stroke-dasharray:none" />
        <path
           d="m395.69 532.69q0 0.45208-0.0476 0.7852-0.0476 0.33311-0.16656 0.54726-0.0952 0.19035-0.26173 0.28553-0.14277 0.0952-0.33312 0.0952h-8.661v26.697q0 0.19035-0.0952 0.33311-0.0952 0.14277-0.33311 0.23794-0.23794 0.0714-0.64244 0.11897-0.3807 0.0714-0.97555 0.0714-0.57106 0-0.97555-0.0714-0.4045-0.0476-0.64244-0.11897-0.23794-0.0952-0.33312-0.23794-0.0952-0.14276-0.0952-0.33311v-26.697h-8.661q-0.19035 0-0.35691-0.0952-0.14276-0.0952-0.23794-0.28553-0.0952-0.21415-0.16655-0.54726-0.0476-0.33312-0.0476-0.7852 0-0.45209 0.0476-0.7852 0.0714-0.35691 0.16655-0.57106 0.0952-0.21414 0.23794-0.30932 0.16656-0.0952 0.35691-0.0952h21.415q0.19035 0 0.33312 0.0952 0.16656 0.0952 0.26173 0.30932 0.11897 0.21415 0.16656 0.57106 0.0476 0.33311 0.0476 0.7852z"
           id="path38"
           style="stroke:#000000;stroke-opacity:1;stroke-width:1.59692465;stroke-dasharray:none" />
        <path
           d="m423.97 545.97q0 3.7356-0.88037 6.7337-0.88038 2.998-2.6411 5.1157-1.737 2.0939-4.3781 3.236-2.6411 1.1183-6.1626 1.1183-3.4739 0-6.0199-1.0231-2.5222-1.0469-4.1877-3.0218-1.6418-1.9749-2.4508-4.9016-0.80899-2.9266-0.80899-6.7337 0-3.6405 0.88038-6.6147 0.88037-2.9742 2.6411-5.0443 1.7608-2.0939 4.4019-3.2122 2.6411-1.1421 6.1626-1.1421 3.4025 0 5.9247 1.0231t4.1877 2.998q1.6894 1.9511 2.4984 4.854 0.83278 2.8791 0.83278 6.6147zm-4.3067 0.28553q0-2.6173-0.47588-4.854-0.45208-2.2604-1.5466-3.9022-1.0707-1.6656-2.8791-2.5935-1.8083-0.92797-4.4733-0.92797-2.6649 0-4.4733 0.99935-1.8083 0.99934-2.9504 2.6649-1.1183 1.6656-1.618 3.9022-0.47588 2.2128-0.47588 4.6636 0 2.7125 0.45208 4.9967 0.45209 2.2842 1.5228 3.9498 1.0707 1.6418 2.8553 2.5698 1.8083 0.90417 4.5208 0.90417 2.6887 0 4.5208-0.99935 1.8321-0.99934 2.9504-2.6887 1.1183-1.7132 1.5942-3.9498t0.47588-4.735z"
           id="path40"
           style="stroke:#000000;stroke-opacity:1;stroke-width:1.59692465;stroke-dasharray:none" />
        <path
           d="m450.4 561.1q0 0.19035-0.0714 0.33311-0.0714 0.14277-0.30932 0.23794-0.23794 0.0952-0.66623 0.14277-0.42829 0.0476-1.1421 0.0476-0.61864 0-1.0231-0.0476-0.3807-0.0476-0.61864-0.14277-0.23794-0.11897-0.3807-0.30932-0.11897-0.19035-0.21415-0.47588l-2.8315-7.2572q-0.49967-1.2373-1.0469-2.2604-0.52347-1.0469-1.2611-1.7846-0.73761-0.76141-1.737-1.1659-0.99935-0.42829-2.4032-0.42829h-2.7363v13.11q0 0.19035-0.11897 0.33311-0.0952 0.14277-0.33312 0.23794-0.21414 0.0714-0.61864 0.11897-0.3807 0.0714-0.97555 0.0714t-0.99935-0.0714q-0.3807-0.0476-0.61864-0.11897-0.23794-0.0952-0.33312-0.23794-0.0952-0.14276-0.0952-0.33311v-28.505q0-0.92796 0.47588-1.2849 0.49967-0.3807 1.0469-0.3807h6.5433q1.1659 0 1.9273 0.0714 0.7852 0.0476 1.4038 0.11897 1.7845 0.30932 3.1408 0.97555 1.38 0.66623 2.308 1.6894 0.92797 1.0231 1.38 2.3556 0.47588 1.3087 0.47588 2.9029 0 1.5466-0.42829 2.7839-0.4045 1.2135-1.1897 2.1652-0.7852 0.92797-1.8797 1.618-1.0945 0.69003-2.4508 1.1659 0.76141 0.33312 1.38 0.85659 0.61864 0.49967 1.1421 1.2135 0.54726 0.71382 1.0231 1.6418t0.95176 2.0939l2.7601 6.7813q0.33311 0.85658 0.42829 1.2135 0.0952 0.33312 0.0952 0.52347zm-6.1626-21.629q0-1.8083-0.80899-3.0456-0.809-1.2611-2.7125-1.8083-0.59485-0.16656-1.3563-0.23794-0.73761-0.0714-1.9511-0.0714h-3.4501v10.374h3.9974q1.618 0 2.7839-0.38071 1.1897-0.40449 1.9749-1.0945 0.7852-0.71382 1.1421-1.6656 0.3807-0.95176 0.3807-2.0701z"
           id="path42"
           style="stroke:#000000;stroke-opacity:1;stroke-width:1.59692465;stroke-dasharray:none" />
        <path
           d="m472.87 560.03q0 0.42829-0.0476 0.76141-0.0476 0.30932-0.16655 0.52346-0.11897 0.21415-0.28553 0.30933-0.14277 0.0952-0.33312 0.0952h-14.776q-0.54726 0-1.0469-0.35691-0.47588-0.3807-0.47588-1.3087v-27.458q0-0.92796 0.47588-1.2849 0.49967-0.3807 1.0469-0.3807h14.609q0.19035 0 0.33311 0.0952 0.16656 0.0952 0.26173 0.30932 0.0952 0.21415 0.14277 0.54726 0.0714 0.30933 0.0714 0.7852 0 0.4283-0.0714 0.76141-0.0476 0.30932-0.14277 0.52347-0.0952 0.19035-0.26173 0.28553-0.14276 0.0952-0.33311 0.0952h-12.04v9.6603h10.327q0.19035 0 0.33312 0.11897 0.16655 0.0952 0.26173 0.28553 0.11897 0.19035 0.16656 0.52347 0.0476 0.33311 0.0476 0.7852 0 0.42829-0.0476 0.73761t-0.16656 0.49967q-0.0952 0.19035-0.26173 0.28553-0.14277 0.0714-0.33312 0.0714h-10.327v11.017h12.206q0.19035 0 0.33312 0.0952 0.16656 0.0952 0.28553 0.30932 0.11897 0.19036 0.16655 0.52347 0.0476 0.30932 0.0476 0.7852z"
           id="path44"
           style="stroke:#000000;stroke-opacity:1;stroke-width:1.59692465;stroke-dasharray:none" />
      </g>
    </g>
  </g>
</svg>
